<svg width="100" height="29" viewBox="0 0 100 29" fill="none" xmlns="http://www.w3.org/2000/svg">
<path d="M2.92828 4.46288H0L0.00633671 0.00759888L13.7654 0.0251048C16.1917 0.0251048 18.2825 0.412739 20.0378 1.18801C21.708 1.8984 23.1988 2.96368 24.4036 4.30783C25.5733 5.64206 26.4476 7.20257 26.9706 8.88941C27.5312 10.6728 27.8108 12.5305 27.7996 14.3976C27.8104 16.3157 27.5108 18.2232 26.9123 20.0483C26.3587 21.7482 25.4603 23.3194 24.2717 24.6661C23.0598 26.0129 21.5577 27.075 19.8755 27.7747C18.1186 28.5299 16.0692 28.9051 13.7274 28.9001L0.0925361 28.8826L0.0988767 24.4273H2.90039L2.92828 4.46288ZM23.2411 14.4301C23.2411 11.2957 22.38 8.85356 20.6577 7.10379C18.9353 5.35402 16.5665 4.47872 13.5512 4.47789L7.40689 4.46288L7.38154 24.4298L13.5297 24.4373C15.1463 24.4373 16.5615 24.1984 17.775 23.7208C18.9277 23.2824 19.9651 22.593 20.8098 21.7038C21.6438 20.7967 22.266 19.7202 22.6327 18.5502C23.0517 17.2152 23.257 15.8238 23.2411 14.4263V14.4301Z" fill="#222222"/>
<path d="M51.3324 24.4846H54.4267V28.9399L44.3894 28.9287V24.4734H46.1464L42.0988 17.2546L36.871 17.2484L36.8621 24.4696H39.6218V28.9249L29.5427 28.9124V24.4571H32.3455L32.3708 4.49023H29.4844V0.0349426L43.4957 0.0524486C44.6538 0.0453383 45.8005 0.278369 46.8614 0.736435C48.9452 1.63236 50.6048 3.27784 51.5022 5.33802C51.9627 6.39338 52.1962 7.5315 52.188 8.68043C52.2061 10.351 51.7 11.9863 50.7391 13.362C49.8112 14.7193 48.5323 15.8072 47.035 16.5131L51.3324 24.4846ZM36.8811 12.7931L43.4894 12.8006C44.0506 12.8064 44.6066 12.6947 45.1209 12.473C45.6126 12.2568 46.0625 11.9581 46.4506 11.5902C46.8401 11.22 47.1531 10.7787 47.3722 10.291C47.6022 9.78446 47.7202 9.23543 47.7183 8.68043C47.7186 8.13255 47.6037 7.59056 47.3811 7.08863C47.1635 6.58812 46.8516 6.13284 46.4621 5.74691C46.0773 5.36527 45.6243 5.05708 45.1259 4.83785C44.612 4.61488 44.0559 4.50194 43.4945 4.50649L36.8875 4.49773L36.8811 12.7931Z" fill="#222222"/>
<path d="M59.0114 4.52795H56.125L56.1313 0.0726624L66.3778 0.0851674L66.3714 4.54045H63.4863L63.4609 24.5073H66.2637V28.9626L56.1846 28.9501V24.4948H58.9861L59.0114 4.52795Z" fill="#222222"/>
<path d="M97.0849 24.5411H99.8458V28.9964L89.8086 28.9839V24.5286H92.5682L92.5872 9.80102C91.4413 11.5591 90.3376 13.2764 89.2761 14.9528C88.2147 16.6292 87.1114 18.3331 85.9663 20.0646L83.9545 23.1969L82.1177 20.2659L75.4397 9.82102L75.4207 24.5073H78.1816V28.9626L68.1431 28.9501V24.4948H70.861L70.8863 4.52795H68.043V0.0726624L74.3584 0.0801646L83.9583 15.2316L93.6381 0.101422L99.9954 0.108924V4.56421H97.1102L97.0849 24.5411Z" fill="#222222"/>
</svg>
