<svg width="32" height="32" viewBox="0 0 32 32" fill="none" xmlns="http://www.w3.org/2000/svg">
<path d="M3.37069 4.93447H0L0.00729408 0L15.8451 0.0193888C18.638 0.0193888 21.0447 0.448714 23.0651 1.30736C24.9877 2.09416 26.7037 3.27402 28.0905 4.76274C29.437 6.24047 30.4434 7.96881 31.0453 9.83708C31.6907 11.8122 32.0125 13.8698 31.9996 15.9377C32.012 18.0621 31.6672 20.1748 30.9782 22.1961C30.341 24.0789 29.3069 25.8191 27.9388 27.3106C26.5438 28.8023 24.8147 29.9786 22.8783 30.7535C20.8559 31.59 18.4969 32.0055 15.8014 31.9999L0.106517 31.9806L0.113815 27.0461H3.33859L3.37069 4.93447ZM26.7524 15.9737C26.7524 12.5021 25.7612 9.79738 23.7787 7.85942C21.7961 5.92145 19.0694 4.95201 15.5985 4.95109L8.52594 4.93447L8.49675 27.0489L15.5737 27.0572C17.4347 27.0572 19.0636 26.7927 20.4605 26.2636C21.7873 25.7781 22.9814 25.0145 23.9538 24.0297C24.9137 23.025 25.63 21.8328 26.052 20.537C26.5344 19.0583 26.7707 17.5173 26.7524 15.9695V15.9737Z" fill="#0075CD"/>
</svg>
